<?xml version="1.0" encoding="UTF-8" standalone="no"?>
<svg width="64px" height="64px" viewBox="0 0 64 64" version="1.1" xmlns="http://www.w3.org/2000/svg" xmlns:xlink="http://www.w3.org/1999/xlink">
    <!-- Generator: Sketch 47.1 (45422) - http://www.bohemiancoding.com/sketch -->
    <title>Pipedrive</title>
    <desc>Created with Sketch.</desc>
    <defs></defs>
    <g id="ICONS" stroke="none" stroke-width="1" fill="none" fill-rule="evenodd">
        <g id="Pipedrive" fill-rule="nonzero">
            <g id="Group" transform="translate(11.000000, 5.000000)">
                <path d="M25.6483402,0.0177631579 C19.6533195,0.0177631579 16.1562241,2.68223684 14.3987552,4.60953947 C14.2114108,3.04638158 13.1051867,0.941447368 8.95684647,0.941447368 L0.0178423237,0.941447368 L0.0178423237,10.3026316 L3.70228216,10.3026316 C4.34460581,10.3026316 4.53195021,10.4891447 4.53195021,11.1286184 L4.53195021,53.9911184 L15.2284232,53.9911184 L15.2284232,37.9243421 C15.2284232,37.4625 15.2284232,37.0983553 15.2284232,36.7342105 C16.8877593,38.2973684 20.1172199,40.4023026 25.0952282,40.4023026 C35.6043568,40.4023026 42.8840249,32.1424342 42.8840249,20.2144737 C42.9821577,8.18881579 36.0682573,0.0177631579 25.6483402,0.0177631579 M23.5251037,31.0411184 C17.7174274,31.0411184 15.1392116,25.5345395 15.1392116,20.3921053 C15.1392116,12.31875 19.5641079,9.46776316 23.7124481,9.46776316 C28.779668,9.46776316 32.196473,13.7842105 32.196473,20.2944079 C32.0983402,27.7371711 27.7715768,31.0411184 23.5251037,31.0411184" id="Shape" fill="#231F20"></path>
                <path d="M25.6483402,0.0177631579 C19.6533195,0.0177631579 16.1562241,2.68223684 14.3987552,4.60953947 C14.2114108,3.04638158 13.1051867,0.941447368 8.95684647,0.941447368 L0.0178423237,0.941447368 L0.0178423237,10.3026316 L3.70228216,10.3026316 C4.34460581,10.3026316 4.53195021,10.4891447 4.53195021,11.1286184 L4.53195021,34.9934211 C9.50995851,33.2526316 14.4879668,31.6006579 19.6533195,30.0375 C16.5219917,28.1990132 15.0410788,24.1667763 15.0410788,20.4009868 C15.0410788,12.3276316 19.4659751,9.47664474 23.6143154,9.47664474 C28.6815353,9.47664474 32.0983402,13.7930921 32.0983402,20.3032895 C32.0983402,23.0565789 31.5452282,25.1703947 30.5282158,26.8223684 C34.5873444,25.7210526 38.6375519,24.6197368 42.6966805,23.5184211 C42.7858921,22.4171053 42.9732365,21.3157895 42.9732365,20.1256579 C42.9821577,8.18881579 36.0682573,0.0177631579 25.6483402,0.0177631579" id="Shape" fill="#3B3B3C"></path>
            </g>
        </g>
    </g>
</svg>